ply
format ascii 1.0
comment generated by OnePiece
element vertex 299
property float x
property float y
property float z
property float nx
property float ny
property float nz
property uchar red
property uchar green
property uchar blue
element face 562
property list uchar uint vertex_indices
end_header
-1.92178 0.3346 -1.85165 -0.997812 0.0275358 0.0601098 255 255 255 
-1.87002 -0.14781 -1.59069 -0.982358 -0.140389 0.123545 255 255 255 
-1.80413 -0.5525 -1.6956 -0.969369 -0.183419 0.163343 255 255 255 
-1.76538 -0.79938 -1.71997 -0.966315 -0.183588 0.180361 255 255 255 
-1.6733 -1.07555 -1.53857 -0.945952 -0.224633 0.233913 255 255 255 
-0.909274 -2.23334 -0.6694 -0.748457 -0.574001 0.332167 255 255 255 
-0.523504 -2.45282 -0.55391 -0.333429 -0.931361 0.146257 255 255 255 
-0.0945979 -2.49029 -0.35773 -0.0525579 -0.969289 0.240244 255 255 255 
-1.3671 -1.67146 -1.08744 -0.873329 -0.287314 0.393378 255 255 255 
-1.6217 -1.00464 -1.28481 -0.929576 -0.246308 0.274263 255 255 255 
-1.48412 -1.14375 -1.0138 -0.86248 -0.245375 0.442628 255 255 255 
-1.26709 -1.38221 -0.77302 -0.790042 -0.185205 0.584408 255 255 255 
-1.13262 -1.75488 -0.7034 -0.803948 -0.191133 0.563148 255 255 255 
-0.997273 -2.02999 -0.61376 -0.825512 -0.297444 0.479642 255 255 255 
-0.6063 -2.34987 -0.24912 -0.572764 -0.712685 0.404996 255 255 255 
-0.292278 -2.45441 -0.19455 -0.17233 -0.939573 0.295813 255 255 255 
-0.749425 -2.14981 -0.27787 -0.786127 -0.258659 0.561338 255 255 255 
-0.524425 -2.17419 -0.01538 -0.657555 -0.256638 0.708349 255 255 255 
-0.37864 -2.35114 -0.03184 -0.352992 -0.724017 0.592619 255 255 255 
0.0112959 -2.35901 0.03494 -0.00875419 -0.822805 0.568256 255 255 255 
-0.299425 -2.20797 0.1315 -0.30263 -0.366146 0.879973 255 255 255 
-0.3613 -1.93822 0.11275 -0.439072 0.0438951 0.897379 255 255 255 
0.0241007 -1.99407 0.19215 0.0268067 0.0411094 0.998795 255 255 255 
0.0200672 -2.22089 0.17631 0.0140424 -0.421241 0.90684 255 255 255 
-0.895031 -1.87194 -0.43475 -0.757188 -0.0780196 0.648521 255 255 255 
-0.989369 -1.55625 -0.48663 -0.693078 -0.122931 0.710303 255 255 255 
-0.758823 -1.65409 -0.29595 -0.693444 0.00669908 0.72048 255 255 255 
-0.630612 -1.87618 -0.13414 -0.715965 0.0430525 0.696808 255 255 255 
-1.7463 -0.68622 -1.50256 -0.96138 -0.203694 0.185089 255 255 255 
-1.8285 -0.15256 -1.29875 -0.964527 -0.12387 0.233117 255 255 255 
-1.68663 -0.63813 -1.16065 -0.922461 -0.227944 0.311621 255 255 255 
-1.5585 -0.6325 -0.88657 -0.81383 -0.206556 0.543153 255 255 255 
-1.36918 -1.03682 -0.79397 -0.759397 -0.209844 0.615859 255 255 255 
-1.72975 -0.15069 -0.99905 -0.886978 -0.0888892 0.453176 255 255 255 
-1.52663 -0.16256 -0.71725 -0.743389 -0.0581976 0.666323 255 255 255 
-1.32662 -0.54875 -0.59537 -0.689984 -0.159799 0.705965 255 255 255 
-1.0776 -0.90662 -0.44963 -0.695895 -0.120915 0.707891 255 255 255 
-1.10185 -0.42118 -0.3853 -0.573025 -0.0596013 0.817367 255 255 255 
-0.840287 -0.61995 -0.22463 -0.535522 0.0495057 0.843069 255 255 255 
-0.823138 -0.95813 -0.19287 -0.604537 -0.0984818 0.790466 255 255 255 
-1.00758 -1.24073 -0.42605 -0.675925 -0.173375 0.716287 255 255 255 
-0.210322 -1.70047 0.12498 -0.203494 -0.0507357 0.977761 255 255 255 
-0.396595 -1.64034 0.0626299 -0.578049 -0.129343 0.805686 255 255 255 
-0.22571 -1.55642 0.1692 -0.210169 -0.261104 0.942154 255 255 255 
0.034325 -1.68441 0.14212 0.0137488 -0.185935 0.982466 255 255 255 
-0.3878 -1.51484 0.12227 -0.559018 -0.115335 0.821095 255 255 255 
-0.495459 -1.46764 0.00469995 -0.755174 -0.0862968 0.64982 255 255 255 
-0.423175 -1.38812 0.07462 -0.629456 0.195362 0.752076 255 255 255 
-0.26755 -1.41937 0.17837 -0.324926 0.116749 0.938506 255 255 255 
-0.093175 -1.44375 0.2015 -0.112772 0.0241113 0.993328 255 255 255 
0.04245 -1.55062 0.20025 0.0163913 -0.229232 0.973234 255 255 255 
-0.160712 -1.2725 0.1591 -0.261295 -0.1658 0.950913 255 255 255 
0.0520973 -1.30689 0.19342 0.0248503 -0.198727 0.97974 255 255 255 
0.0449109 -1.45008 0.21447 0.0319771 0.00150418 0.999487 255 255 255 
-0.559096 -1.57923 -0.10118 -0.730424 -0.0303074 0.682321 255 255 255 
-0.703687 -1.3107 -0.23734 -0.671582 -0.096418 0.73463 255 255 255 
-0.509472 -0.94847 0.0022099 -0.576452 0.0790459 0.813299 255 255 255 
-0.445641 -1.10437 0.07041 -0.680028 -0.125734 0.722325 255 255 255 
-0.432187 -1.20512 0.05545 -0.616449 -0.255216 0.744886 255 255 255 
-0.436573 -1.28856 0.01963 -0.646028 0.0136058 0.763193 255 255 255 
-0.310675 -1.28375 0.11275 -0.488176 -0.00390529 0.872737 255 255 255 
-0.324425 -1.15875 0.15337 -0.476459 -0.306399 0.824079 255 255 255 
-0.0538 -1.14188 0.27837 -0.205294 -0.342749 0.916721 255 255 255 
-0.193027 -1.13157 0.22564 -0.37134 -0.334076 0.866314 255 255 255 
-0.123777 -1.00194 0.28554 -0.293663 -0.00565585 0.955892 255 255 255 
0.0620973 -1.00371 0.30818 0.0339649 0.0695992 0.996997 255 255 255 
0.0549109 -1.14735 0.28568 0.02213 -0.334183 0.942248 255 255 255 
-0.315675 -1.03938 0.19712 -0.540602 -0.000635656 0.841278 255 255 255 
-0.101526 -0.87048 0.25416 -0.317788 0.240883 0.917053 255 255 255 
-0.263654 -0.58378 0.08371 -0.500156 -0.0884418 0.861407 255 255 255 
-0.0456414 -0.62484 0.2248 -0.576813 -0.0745256 0.81347 255 255 255 
0.0728986 -0.6757 0.25665 0.0133187 -0.312683 0.949764 255 255 255 
0.0649109 -0.87281 0.26627 0.0362977 0.177172 0.98351 255 255 255 
-0.679347 -0.79313 -0.10342 -0.498675 0.0916938 0.861926 255 255 255 
-0.4713 -0.56563 -0.03912 -0.549033 0.0369275 0.834985 255 255 255 
-0.109425 -0.42187 0.1615 -0.511035 -0.649491 0.563031 255 255 255 
-0.318367 -0.42325 0.15573 -0.395835 -0.648835 0.649868 255 255 255 
-0.206959 -0.37914 0.28152 -0.332849 -0.837865 0.432659 255 255 255 
-0.0999328 -0.40008 0.34084 -0.551607 -0.780581 0.293977 255 255 255 
-0.0128683 -0.47975 0.38743 -0.565569 -0.550531 0.614042 255 255 255 
-0.410675 -0.39875 0.06463 -0.758337 -0.229531 0.610115 255 255 255 
-0.514929 -0.31438 -0.0916899 -0.652531 0.127606 0.74694 255 255 255 
-0.36255 -0.2475 0.14525 -0.815383 0.258421 0.518043 255 255 255 
-0.27005 -0.325 0.29587 -0.713534 -0.283078 0.640887 255 255 255 
-0.0953195 -0.32368 0.46351 -0.538068 -0.353416 0.765232 255 255 255 
-0.150675 -0.16816 0.39525 -0.71227 0.294049 0.637344 255 255 255 
-0.0130275 -0.0897 0.47098 -0.410629 0.344925 0.844044 255 255 255 
0.0916966 -0.24653 0.52693 0.0303419 -0.0883741 0.995625 255 255 255 
0.0824891 -0.49555 0.42205 -0.00424733 -0.540922 0.841062 255 255 255 
-1.28852 -0.14631 -0.50037 -0.586382 0.0209806 0.809763 255 255 255 
-1.44591 0.19008 -0.66184 -0.633355 0.138182 0.761425 255 255 255 
-1.20104 0.17644 -0.50038 -0.477033 0.194476 0.857099 255 255 255 
-0.920373 -0.1363 -0.29835 -0.4377 0.132922 0.889242 255 255 255 
-0.850778 0.21154 -0.35737 -0.33291 0.310264 0.890453 255 255 255 
-1.12354 0.44387 -0.52475 -0.42896 0.15114 0.890589 255 255 255 
-0.865013 0.46888 -0.4535 -0.188117 0.194213 0.962753 255 255 255 
-0.60246 0.47355 -0.41502 -0.251605 0.363117 0.89713 255 255 255 
-0.425615 0.34281 -0.24021 -0.541265 0.373904 0.753145 255 255 255 
-0.546665 0.01544 -0.17118 -0.45164 0.245962 0.857627 255 255 255 
-0.3163 -0.02259 0.00524998 -0.719983 0.331099 0.609917 255 255 255 
-0.215988 -0.08166 0.21568 -0.773823 0.411199 0.481782 255 255 255 
-0.10595 0.20633 0.17771 -0.690042 0.368912 0.622692 255 255 255 
-0.3213 0.70388 -0.33725 -0.605617 0.244576 0.757239 255 255 255 
-0.102578 1.0318 -0.22404 -0.547198 0.162461 0.821085 255 255 255 
0.103299 0.40905 0.21137 0.0450338 0.47005 0.88149 255 255 255 
0.123299 1.20914 -0.19786 0.0362037 0.326744 0.944419 255 255 255 
-1.38852 0.72532 -0.74676 -0.706347 -0.00848857 0.707814 255 255 255 
-1.43708 0.53121 -0.75402 -0.629551 0.174944 0.757007 255 255 255 
-1.62396 0.72817 -1.01382 -0.790587 0.12499 0.599458 255 255 255 
-1.3435 0.9045 -0.67473 -0.718156 0.0581233 0.69345 255 255 255 
-1.26993 0.7813 -0.61998 -0.643647 -0.0784975 0.761287 255 255 255 
-1.2235 0.64325 -0.60287 -0.594627 -0.0378911 0.803108 255 255 255 
-1.07293 0.60138 -0.51475 -0.347219 -0.044869 0.93671 255 255 255 
-1.14182 0.7255 -0.52689 -0.489499 -0.106731 0.865447 255 255 255 
-0.986869 0.73013 -0.471 -0.19981 -0.0859924 0.976054 255 255 255 
-0.869639 0.60457 -0.47016 -0.125029 -0.0123058 0.992077 255 255 255 
-0.656925 0.607 -0.456 -0.067633 0.179 0.981522 255 255 255 
-0.754425 0.73137 -0.456 0.0329122 -0.0454007 0.998426 255 255 255 
-0.558995 0.72942 -0.48952 -0.0831631 0.0812541 0.993218 255 255 255 
-0.471925 0.65575 -0.4435 -0.416737 0.235752 0.877924 255 255 255 
-0.518066 0.92151 -0.461 -0.173133 0.0280743 0.984498 255 255 255 
-0.352936 1.05373 -0.44895 -0.465416 0.00361296 0.885085 255 255 255 
-1.6335 0.27581 -0.8672 -0.778668 0.123374 0.615188 255 255 255 
-1.79788 0.36394 -1.17002 -0.912301 0.0768197 0.402251 255 255 255 
-1.89129 0.25607 -1.47727 -0.984055 0.0298867 0.175334 255 255 255 
-1.89995 0.53458 -1.73939 -0.989134 0.102205 0.105677 255 255 255 
-1.83537 0.73263 -1.49247 -0.969946 0.113997 0.214965 255 255 255 
-1.79675 0.66738 -1.2706 -0.921874 0.142453 0.360354 255 255 255 
-1.46207 1.02102 -0.86271 -0.736336 0.0188503 0.676354 255 255 255 
-1.70413 0.89075 -1.1519 -0.864507 0.0249344 0.502002 255 255 255 
-1.56662 1.187 -0.90658 -0.729794 -0.121844 0.672722 255 255 255 
-1.20907 1.26151 -0.641 -0.560607 -0.0154159 0.827938 255 255 255 
-1.77163 1.04137 -1.2869 -0.946191 0.0405071 0.321062 255 255 255 
-1.87254 0.83579 -1.83166 -0.987494 0.108115 0.114747 255 255 255 
-1.78591 1.27868 -1.52774 -0.966707 0.123377 0.224176 255 255 255 
-1.63412 1.33637 -0.98843 -0.870884 0.0769465 0.485428 255 255 255 
-0.962512 1.31825 -0.52038 -0.254307 0.0133256 0.967032 255 255 255 
-0.840792 1.04916 -0.43747 -0.0424178 0.0948282 0.99459 255 255 255 
-1.09683 1.01151 -0.48581 -0.448446 0.0796663 0.890253 255 255 255 
-0.989369 1.51763 -0.48663 -0.321303 -0.131389 0.937817 255 255 255 
-0.690675 1.46825 -0.43663 -0.214506 -0.261589 0.941041 255 255 255 
-0.735675 1.29247 -0.49799 -0.0727708 -0.0276234 0.996966 255 255 255 
-0.521925 1.20637 -0.49162 -0.16301 -0.0943024 0.982107 255 255 255 
-0.38255 1.35763 -0.366 -0.423101 -0.22293 0.87823 255 255 255 
-0.2988 1.51888 -0.3135 -0.175068 0.183376 0.967329 255 255 255 
-0.650656 1.65138 -0.38975 -0.217871 0.043442 0.97501 255 255 255 
-0.568762 1.957 -0.51163 -0.115591 0.430873 0.894979 255 255 255 
-0.126925 1.88075 -0.46475 0.00737758 0.412813 0.910786 255 255 255 
-1.01856 1.73075 -0.4985 -0.365207 0.230854 0.901848 255 255 255 
-1.31977 1.46012 -0.64975 -0.569609 -0.0680133 0.819097 255 255 255 
-1.37413 1.64512 -0.69598 -0.695163 0.24393 0.6762 255 255 255 
-1.02799 2.04024 -0.66726 -0.413619 0.466633 0.781775 255 255 255 
0.1337 1.79181 -0.43643 0.0352913 0.402167 0.914886 255 255 255 
0.141177 2.33872 -0.69438 0.0365312 0.438466 0.898005 255 255 255 
-0.446705 2.36984 -0.71475 -0.114454 0.477168 0.871327 255 255 255 
-0.984806 2.337 -0.8428 -0.38399 0.510846 0.769148 255 255 255 
-1.36334 2.16739 -1.01262 -0.666448 0.413939 0.620082 255 255 255 
-1.41291 1.89448 -0.89911 -0.758316 0.352652 0.548264 255 255 255 
-1.67037 1.60575 -1.21942 -0.913874 0.206651 0.34947 255 255 255 
-1.77788 1.5895 -1.64372 -0.958709 0.157348 0.236893 255 255 255 
-1.64909 1.88614 -1.37287 -0.891209 0.27624 0.359776 255 255 255 
1.914 -0.27194 -1.39685 0.965034 -0.185761 0.184937 255 255 255 
1.829 -0.26694 -1.0888 0.903106 -0.146816 0.40354 255 255 255 
1.92275 0.24456 -1.26813 0.935697 0.0188559 0.352299 255 255 255 
1.95431 0.60763 -1.49525 0.959762 0.0278152 0.279435 255 255 255 
1.93025 1.18325 -1.42497 0.962756 0.078647 0.258679 255 255 255 
1.6165 2.07223 -1.08899 0.705786 0.369732 0.604288 255 255 255 
1.81838 1.81513 -1.31568 0.866119 0.244433 0.435993 255 255 255 
1.65502 1.79364 -0.97911 0.789928 0.298236 0.535789 255 255 255 
1.60963 1.54763 -0.77407 0.738585 0.199059 0.644102 255 255 255 
1.85943 1.49289 -1.25105 0.903093 0.169475 0.394589 255 255 255 
1.83338 1.22638 -1.07755 0.886758 0.0197245 0.461813 255 255 255 
1.28691 1.96926 -0.72775 0.480593 0.43593 0.760917 255 255 255 
1.25707 2.26888 -0.90092 0.453406 0.479428 0.75138 255 255 255 
0.727479 2.33563 -0.74643 0.189257 0.465727 0.864454 255 255 255 
0.833738 1.91512 -0.55037 0.189385 0.422482 0.886364 255 255 255 
0.394325 1.862 -0.47662 0.0659229 0.4113 0.909113 255 255 255 
1.54587 1.37013 -0.7216 0.602889 -0.104657 0.790931 255 255 255 
1.76275 1.0795 -0.99405 0.745971 -0.175439 0.642454 255 255 255 
1.42459 1.17906 -0.711 0.595644 -0.0542322 0.801415 255 255 255 
1.64839 0.92018 -0.94355 0.769845 -0.0316416 0.637446 255 255 255 
1.22646 1.44825 -0.54537 0.3597 -0.153115 0.920419 255 255 255 
0.903738 1.602 -0.42975 0.273876 0.0309515 0.961267 255 255 255 
1.26646 1.66075 -0.55788 0.423489 0.209125 0.881433 255 255 255 
0.926862 1.41762 -0.47725 0.252809 -0.274069 0.927887 255 255 255 
0.618075 1.32575 -0.3885 0.454694 -0.24959 0.854961 255 255 255 
0.326547 1.01886 -0.23502 0.600287 0.120665 0.790629 255 255 255 
0.54745 1.49075 -0.3335 0.235957 0.172326 0.956362 255 255 255 
0.5637 1.02373 -0.46979 0.51052 -0.0316803 0.859282 255 255 255 
1.29275 0.94325 -0.54413 0.460883 0.0738104 0.884386 255 255 255 
1.52174 0.8019 -0.73255 0.742699 -0.0212164 0.669289 255 255 255 
0.722049 0.88053 -0.49149 0.222084 0.0133591 0.974936 255 255 255 
0.740594 1.16513 -0.52288 0.210841 -0.106614 0.971689 255 255 255 
0.960726 1.24005 -0.54041 0.128901 -0.0335091 0.991091 255 255 255 
1.04894 0.98965 -0.486 0.102354 0.0910727 0.99057 255 255 255 
1.18834 1.25013 -0.57788 0.308199 -0.0012964 0.951321 255 255 255 
1.864 0.77325 -1.24315 0.876685 -0.0478067 0.478684 255 255 255 
1.92709 0.93802 -1.33466 0.912357 -0.0672581 0.403833 255 255 255 
1.93307 0.54738 -1.36892 0.943991 0.0717713 0.322071 255 255 255 
1.78196 0.61937 -1.10262 0.828003 0.0660111 0.556825 255 255 255 
1.98045 0.13006 -1.52024 0.982901 -0.0359443 0.180595 255 255 255 
1.92252 -0.32975 -1.64185 0.969874 -0.226043 0.0908242 255 255 255 
0.778229 0.43018 -0.44923 0.320947 0.351824 0.879325 255 255 255 
0.602049 0.31136 -0.26923 0.598354 0.339224 0.725878 255 255 255 
0.6587 0.61637 -0.4735 0.469846 0.206036 0.858367 255 255 255 
1.59508 0.43366 -0.83304 0.677637 0.136094 0.722694 255 255 255 
1.29025 0.36513 -0.586 0.48427 0.119809 0.866677 255 255 255 
1.39962 0.56075 -0.67225 0.645733 -0.0971934 0.757352 255 255 255 
1.77025 0.16644 -0.95592 0.817272 0.0733406 0.571566 255 255 255 
1.64338 -0.26319 -0.79722 0.77138 -0.106143 0.627461 255 255 255 
1.5897 0.0917599 -0.741 0.675951 0.100011 0.730129 255 255 255 
1.34962 0.0958099 -0.5685 0.531017 0.161113 0.831904 255 255 255 
0.513075 0.67513 -0.35787 0.656899 0.200083 0.726946 255 255 255 
0.747606 0.68579 -0.52194 0.131142 0.0613589 0.989463 255 255 255 
0.943131 0.67387 -0.49725 0.0186165 -0.0528378 0.99843 255 255 255 
1.17586 0.66013 -0.5285 0.241848 -0.0983762 0.965314 255 255 255 
1.04815 0.54289 -0.52016 0.173886 -0.0270163 0.984395 255 255 255 
1.34275 0.65138 -0.59475 0.554318 -0.145505 0.819488 255 255 255 
1.4631 0.66731 -0.70373 0.707256 -0.191 0.680667 255 255 255 
0.835613 0.557 -0.49538 0.129518 0.168508 0.977154 255 255 255 
1.03459 0.40825 -0.50287 0.248523 0.184207 0.950949 255 255 255 
1.25088 0.5245 -0.57412 0.389097 -0.0716789 0.918404 255 255 255 
1.5582 0.63364 -0.82508 0.746431 -0.0810097 0.660514 255 255 255 
1.7465 -0.74813 -1.25 0.921747 -0.285483 0.262455 255 255 255 
0.703274 -0.02511 -0.20371 0.511653 0.214414 0.832008 255 255 255 
0.483075 -0.0456899 -0.016 0.771224 0.285213 0.569093 255 255 255 
0.199587 -0.09802 0.46266 0.477401 0.317638 0.819264 255 255 255 
0.326825 -0.18066 0.38337 0.754135 0.251339 0.60672 255 255 255 
0.293751 0.19433 0.16611 0.74142 0.325497 0.586812 255 255 255 
0.390966 -0.10045 0.1981 0.818056 0.366111 0.443561 255 255 255 
0.434325 -0.34562 0.2765 0.723242 -0.327134 0.608197 255 255 255 
0.521825 -0.275 0.12462 0.857287 0.205747 0.47194 255 255 255 
0.654305 -0.35387 -0.12267 0.702313 0.0790135 0.70747 255 255 255 
1.05758 -0.19775 -0.34884 0.489321 0.102304 0.866083 255 255 255 
0.950702 -0.67848 -0.27316 0.578275 0.0139204 0.815723 255 255 255 
1.21725 -0.49866 -0.4453 0.604711 -0.0981244 0.790377 255 255 255 
0.59745 -0.59938 -0.07038 0.599306 0.000475661 0.80052 255 255 255 
1.00993 0.15303 -0.4059 0.397857 0.284374 0.872262 255 255 255 
1.4165 -0.23444 -0.56975 0.623146 -0.0161232 0.781939 255 255 255 
1.424 -0.63813 -0.66538 0.711031 -0.205226 0.672546 255 255 255 
0.170759 -0.48828 0.38596 0.56988 -0.575462 0.586584 255 255 255 
0.2637 -0.33417 0.45351 0.558339 -0.379734 0.737604 255 255 255 
0.185564 -0.63484 0.22143 0.617058 -0.112727 0.778801 255 255 255 
0.364359 -0.39745 0.26405 0.295763 -0.856581 0.422841 255 255 255 
0.257333 -0.41129 0.33084 0.532506 -0.802791 0.268262 255 255 255 
0.467449 -0.44904 0.13573 0.386838 -0.673181 0.630225 255 255 255 
0.400073 -0.60476 0.0641999 0.544369 -0.122648 0.829831 255 255 255 
0.55745 -0.42813 0.0371201 0.779617 -0.280022 0.560165 255 255 255 
0.25745 -0.43438 0.15088 0.505118 -0.674362 0.538602 255 255 255 
0.617272 -0.98686 -0.02739 0.623052 0.0420731 0.781048 255 255 255 
0.787958 -0.84192 -0.14342 0.551255 0.0656106 0.831753 255 255 255 
0.917487 -1.01688 -0.241 0.638949 -0.133611 0.757557 255 255 255 
0.240336 -1.01362 0.27554 0.340048 -0.0246035 0.940086 255 255 255 
0.228525 -0.88168 0.24416 0.384128 0.213497 0.898256 255 255 255 
0.4237 -1.06626 0.17838 0.581172 -0.041688 0.812713 255 255 255 
0.258112 -1.28397 0.14812 0.305347 -0.192179 0.932647 255 255 255 
0.299587 -1.14989 0.21395 0.392053 -0.361101 0.846109 255 255 255 
0.42245 -1.18 0.13462 0.49542 -0.341432 0.798738 255 255 255 
0.525382 -1.23511 0.0337701 0.626628 -0.29175 0.722647 255 255 255 
0.542201 -1.13605 0.0478899 0.702241 -0.165818 0.69236 255 255 255 
0.16245 -1.15063 0.27025 0.230762 -0.357028 0.905141 255 255 255 
0.3537 -1.43937 0.16025 0.379427 0.107552 0.918949 255 255 255 
0.399325 -1.305 0.09337 0.5218 -0.0429856 0.851984 255 255 255 
0.521552 -1.31977 -0.00279999 0.675007 -0.0422253 0.736602 255 255 255 
0.501825 -1.41812 0.0527501 0.673601 0.159133 0.721761 255 255 255 
0.804566 -1.70493 -0.33595 0.728799 -0.0407156 0.683516 255 255 255 
0.617337 -1.61923 -0.13202 0.762816 -0.0749752 0.642254 255 255 255 
0.773677 -1.35891 -0.27529 0.701555 -0.13998 0.698732 255 255 255 
0.569495 -1.50016 -0.02361 0.784945 -0.128776 0.606035 255 255 255 
1.06797 -1.30905 -0.47773 0.70118 -0.216477 0.679326 255 255 255 
1.02769 -1.62375 -0.53725 0.721906 -0.168619 0.671133 255 255 255 
0.668993 -1.91667 -0.16512 0.752863 -0.00508096 0.658157 255 255 255 
0.408075 -1.96572 0.09337 0.485146 0.00693921 0.874405 255 255 255 
0.462525 -1.67034 0.04214 0.614555 -0.166988 0.770998 255 255 255 
0.30311 -1.57495 0.1587 0.239115 -0.26167 0.935068 255 255 255 
0.181825 -1.45313 0.19275 0.169855 0.0214854 0.985235 255 255 255 
0.465199 -1.54316 0.10227 0.595442 -0.13381 0.792176 255 255 255 
0.2752 -1.71879 0.11498 0.246982 -0.0697579 0.966506 255 255 255 
1.299 -1.4622 -0.84057 0.805452 -0.237825 0.54285 255 255 255 
1.14881 -1.82572 -0.76256 0.818494 -0.245177 0.519572 255 255 255 
1.52275 -1.2425 -1.09317 0.865251 -0.303478 0.399052 255 255 255 
1.42475 -1.12598 -0.86481 0.771695 -0.263945 0.578637 255 255 255 
1.65466 -1.11212 -1.37228 0.925291 -0.305283 0.225028 255 255 255 
1.1626 -0.97858 -0.50963 0.719823 -0.16756 0.67363 255 255 255 
1.63587 -0.73312 -0.96655 0.826973 -0.259806 0.498615 255 255 255 
1.78675 -0.79818 -1.59354 0.953694 -0.26545 0.141435 255 255 255 
1.844 -0.67063 -1.78747 0.961265 -0.24772 0.120847 255 255 255 
1.789 -0.91563 -1.80997 0.959408 -0.243574 0.142155 255 255 255 
1.68736 -1.18434 -1.62615 0.939728 -0.286244 0.187017 255 255 255 
0.7637 -2.19919 -0.31788 0.79821 -0.293624 0.525971 255 255 255 
0.54995 -2.20606 -0.04413 0.671975 -0.293846 0.679782 255 255 255 
0.997297 -2.09251 -0.66544 0.831871 -0.327064 0.448352 255 255 255 
0.915612 -1.93069 -0.48287 0.784914 -0.131964 0.605388 255 255 255 
0.92858 -2.24849 -0.70044 0.797108 -0.474173 0.37387 255 255 255 
0.389404 -2.37777 -0.051 0.338133 -0.73495 0.587804 255 255 255 
0.266434 -2.46183 -0.16405 0.0973909 -0.907615 0.40835 255 255 255 
0.329325 -2.22609 0.11462 0.325429 -0.382589 0.864709 255 255 255 
0.60604 -2.37525 -0.25689 0.608714 -0.631489 0.480302 255 255 255 
1.36436 -1.7595 -1.15744 0.872135 -0.336128 0.355526 255 255 255 
3 4 8 9 
3 9 8 10 
3 10 8 11 
3 11 8 12 
3 12 8 13 
3 13 8 5 
3 15 14 6 
3 6 14 5 
3 5 14 16 
3 16 14 17 
3 17 14 18 
3 18 14 15 
3 15 7 19 
3 19 20 18 
3 18 20 17 
3 17 20 21 
3 21 20 22 
3 22 20 23 
3 23 20 19 
3 7 15 6 
3 15 19 18 
3 5 16 13 
3 13 24 12 
3 12 24 25 
3 25 24 26 
3 26 24 27 
3 27 24 16 
3 16 24 13 
3 21 27 17 
3 16 17 27 
3 9 28 4 
3 4 28 3 
3 3 28 2 
3 2 28 1 
3 1 28 29 
3 29 28 30 
3 30 28 9 
3 32 31 10 
3 10 31 30 
3 30 31 33 
3 33 31 34 
3 34 31 35 
3 35 31 32 
3 35 36 37 
3 37 36 38 
3 38 36 39 
3 39 36 40 
3 40 36 11 
3 11 36 32 
3 32 36 35 
3 10 30 9 
3 11 32 10 
3 25 11 12 
3 11 25 40 
3 22 41 21 
3 21 41 42 
3 42 41 43 
3 43 41 44 
3 44 41 22 
3 42 45 46 
3 46 45 47 
3 47 45 48 
3 48 45 43 
3 43 45 42 
3 50 49 43 
3 43 49 48 
3 48 49 51 
3 51 49 52 
3 52 49 53 
3 53 49 50 
3 50 43 44 
3 46 54 42 
3 42 54 27 
3 27 54 26 
3 21 42 27 
3 26 55 25 
3 25 55 40 
3 40 55 39 
3 39 55 56 
3 56 55 57 
3 57 55 58 
3 58 55 59 
3 59 55 47 
3 47 55 46 
3 46 55 54 
3 54 55 26 
3 48 60 47 
3 47 60 59 
3 59 60 58 
3 58 60 61 
3 61 60 51 
3 51 60 48 
3 52 62 51 
3 51 62 63 
3 63 62 64 
3 64 62 65 
3 65 62 66 
3 66 62 52 
3 64 67 63 
3 63 67 61 
3 61 67 57 
3 57 67 56 
3 61 57 58 
3 63 61 51 
3 64 68 67 
3 67 68 56 
3 56 68 69 
3 69 68 70 
3 70 68 71 
3 71 68 72 
3 72 68 65 
3 65 68 64 
3 74 73 56 
3 56 73 39 
3 39 73 38 
3 38 73 74 
3 74 56 69 
3 76 75 77 
3 77 75 78 
3 78 75 79 
3 79 75 70 
3 70 75 69 
3 69 80 74 
3 74 80 81 
3 81 80 82 
3 82 80 83 
3 83 80 76 
3 76 80 69 
3 76 77 83 
3 79 84 78 
3 78 84 77 
3 77 84 83 
3 83 84 85 
3 85 84 86 
3 86 84 87 
3 70 71 79 
3 88 79 71 
3 87 84 79 
3 87 79 88 
3 37 89 35 
3 35 89 34 
3 34 89 90 
3 90 89 91 
3 91 89 92 
3 92 89 37 
3 92 93 91 
3 91 93 94 
3 94 93 95 
3 95 93 96 
3 96 93 97 
3 97 93 98 
3 98 93 92 
3 74 81 38 
3 37 38 92 
3 81 92 38 
3 98 92 81 
3 98 81 99 
3 82 99 81 
3 85 100 82 
3 82 100 99 
3 85 82 83 
3 85 101 100 
3 100 101 99 
3 99 101 97 
3 97 101 102 
3 102 101 103 
3 103 101 104 
3 104 101 86 
3 86 101 85 
3 86 87 104 
3 99 97 98 
3 30 33 29 
3 105 103 104 
3 107 106 108 
3 108 106 109 
3 109 106 110 
3 110 106 111 
3 111 106 107 
3 94 112 111 
3 111 112 113 
3 113 112 114 
3 114 112 115 
3 115 112 95 
3 95 112 94 
3 96 116 95 
3 95 116 115 
3 115 116 117 
3 118 116 119 
3 119 116 96 
3 110 111 113 
3 114 115 117 
3 118 119 120 
3 102 120 119 
3 102 119 97 
3 121 102 103 
3 121 120 102 
3 94 107 91 
3 90 91 107 
3 107 122 90 
3 90 122 34 
3 34 122 33 
3 33 122 123 
3 123 122 108 
3 108 122 107 
3 94 111 107 
3 97 119 96 
3 29 124 1 
3 1 124 0 
3 0 124 125 
3 125 124 126 
3 126 124 127 
3 127 124 123 
3 123 124 29 
3 108 127 123 
3 109 128 108 
3 108 128 129 
3 129 128 130 
3 130 128 131 
3 131 128 109 
3 108 129 127 
3 126 127 129 
3 129 132 126 
3 126 132 133 
3 133 132 134 
3 134 132 135 
3 135 132 130 
3 130 132 129 
3 137 136 138 
3 138 136 131 
3 131 136 139 
3 139 136 140 
3 140 136 141 
3 141 136 137 
3 120 142 137 
3 137 142 141 
3 141 142 140 
3 140 142 143 
3 143 142 121 
3 121 142 120 
3 131 109 138 
3 103 143 121 
3 103 144 143 
3 143 144 145 
3 145 144 146 
3 146 144 147 
3 147 144 105 
3 105 144 103 
3 143 145 140 
3 139 140 145 
3 145 148 139 
3 139 148 149 
3 149 148 150 
3 150 148 151 
3 151 148 146 
3 146 148 145 
3 139 149 131 
3 149 130 131 
3 130 149 135 
3 135 149 150 
3 105 152 147 
3 153 147 152 
3 154 147 153 
3 147 154 146 
3 151 146 154 
3 151 154 155 
3 151 155 156 
3 151 156 157 
3 151 157 150 
3 150 158 135 
3 135 158 134 
3 134 158 159 
3 159 158 160 
3 160 158 157 
3 157 158 150 
3 160 157 156 
3 126 133 125 
3 0 125 133 
3 33 123 29 
3 162 161 163 
3 167 166 168 
3 168 169 170 
3 167 168 170 
3 171 165 170 
3 169 171 170 
3 172 169 168 
3 172 168 166 
3 172 166 173 
3 172 173 174 
3 172 174 175 
3 176 175 174 
3 174 153 176 
3 153 152 176 
3 105 176 152 
3 171 169 177 
3 178 171 177 
3 177 179 178 
3 180 178 179 
3 181 179 177 
3 175 182 183 
3 172 175 183 
3 169 172 183 
3 177 169 183 
3 181 177 183 
3 182 181 183 
3 181 182 184 
3 185 184 182 
3 105 186 187 
3 176 105 187 
3 175 176 187 
3 182 175 187 
3 185 182 187 
3 186 185 187 
3 186 188 185 
3 179 189 190 
3 188 191 192 
3 185 188 192 
3 184 185 192 
3 193 184 192 
3 194 193 192 
3 191 194 192 
3 193 194 195 
3 184 193 195 
3 181 184 195 
3 179 181 195 
3 189 179 195 
3 194 189 195 
3 178 196 197 
3 171 178 197 
3 165 171 197 
3 196 164 197 
3 164 196 198 
3 199 198 196 
3 179 190 180 
3 196 178 180 
3 199 196 180 
3 190 199 180 
3 199 163 198 
3 163 161 200 
3 198 163 200 
3 164 198 200 
3 161 201 200 
3 203 202 204 
3 206 205 207 
3 199 205 208 
3 163 199 208 
3 162 163 208 
3 209 162 208 
3 210 209 208 
3 205 210 208 
3 210 205 211 
3 206 211 205 
3 188 212 191 
3 188 186 212 
3 212 203 204 
3 213 191 204 
3 215 214 216 
3 218 217 207 
3 204 202 219 
3 213 204 219 
3 214 213 219 
3 216 214 219 
3 220 216 219 
3 202 220 219 
3 220 206 221 
3 216 220 221 
3 215 216 221 
3 217 215 221 
3 207 217 221 
3 206 207 221 
3 207 205 222 
3 218 207 222 
3 190 218 222 
3 199 190 222 
3 205 199 222 
3 105 104 186 
3 223 161 162 
3 225 224 203 
3 226 104 87 
3 226 227 228 
3 104 226 228 
3 186 104 228 
3 212 186 228 
3 203 212 228 
3 225 203 228 
3 229 225 228 
3 227 229 228 
3 227 230 231 
3 231 225 229 
3 227 231 229 
3 231 232 225 
3 224 225 232 
3 224 232 233 
3 232 234 233 
3 235 233 234 
3 236 234 232 
3 224 233 237 
3 203 224 237 
3 202 203 237 
3 220 202 237 
3 206 220 237 
3 211 206 237 
3 233 211 237 
3 233 235 238 
3 211 233 238 
3 210 211 238 
3 209 210 238 
3 239 209 238 
3 235 239 238 
3 87 88 240 
3 87 240 241 
3 88 71 240 
3 242 240 71 
3 226 87 241 
3 227 226 241 
3 230 227 241 
3 243 230 241 
3 244 243 241 
3 240 244 241 
3 245 230 243 
3 245 246 247 
3 230 245 247 
3 231 230 247 
3 232 231 247 
3 236 232 247 
3 246 236 247 
3 242 246 248 
3 240 242 248 
3 244 240 248 
3 243 244 248 
3 245 243 248 
3 246 245 248 
3 236 246 249 
3 234 236 250 
3 251 234 250 
3 249 251 250 
3 236 249 250 
3 65 252 253 
3 72 65 253 
3 71 72 253 
3 242 71 253 
3 246 242 253 
3 249 246 253 
3 254 249 253 
3 252 254 253 
3 256 255 257 
3 257 258 259 
3 259 249 254 
3 257 259 254 
3 256 257 254 
3 252 256 254 
3 66 52 260 
3 65 66 260 
3 252 65 260 
3 256 252 260 
3 255 256 260 
3 52 255 260 
3 255 261 262 
3 257 255 262 
3 258 257 262 
3 263 258 262 
3 264 263 262 
3 261 264 262 
3 266 265 267 
3 268 266 267 
3 264 268 267 
3 263 264 267 
3 258 263 267 
3 259 258 267 
3 249 259 267 
3 251 249 267 
3 269 251 267 
3 270 269 267 
3 265 270 267 
3 272 271 273 
3 271 265 266 
3 273 271 266 
3 268 273 266 
3 50 44 274 
3 53 50 275 
3 52 53 275 
3 255 52 275 
3 261 255 275 
3 274 261 275 
3 50 274 275 
3 274 273 276 
3 261 274 276 
3 264 261 276 
3 268 264 276 
3 273 268 276 
3 44 22 277 
3 274 44 277 
3 273 274 277 
3 272 273 277 
3 22 272 277 
3 278 269 270 
3 270 279 278 
3 278 280 281 
3 280 282 223 
3 281 239 283 
3 278 281 283 
3 269 278 283 
3 251 269 283 
3 234 251 283 
3 235 234 283 
3 239 235 283 
3 239 281 284 
3 209 239 284 
3 162 209 284 
3 223 162 284 
3 280 223 284 
3 281 280 284 
3 223 282 285 
3 161 223 285 
3 201 161 285 
3 286 201 285 
3 287 286 285 
3 288 287 285 
3 282 288 285 
3 289 271 290 
3 272 290 271 
3 289 291 292 
3 271 289 292 
3 265 271 292 
3 270 265 292 
3 279 270 292 
3 291 279 292 
3 293 291 289 
3 295 294 19 
3 23 19 296 
3 22 23 296 
3 272 22 296 
3 290 272 296 
3 294 290 296 
3 19 294 296 
3 295 19 7 
3 294 295 297 
3 290 294 297 
3 289 290 297 
3 293 289 297 
3 291 293 298 
3 279 291 298 
3 278 279 298 
3 280 278 298 
3 282 280 298 
3 288 282 298 
3 138 109 110 
3 138 110 113 
3 138 113 114 
3 138 114 137 
3 137 117 120 
3 120 117 118 
3 191 213 214 
3 215 194 214 
3 189 194 215 
3 189 215 217 
3 190 189 217 
3 204 191 212 
3 218 190 217 
3 137 114 117 
3 118 117 116 
3 191 214 194 
3 76 69 75 
